<mxfile host="Electron" modified="2023-09-25T08:48:03.036Z" agent="Mozilla/5.0 (Windows NT 10.0; Win64; x64) AppleWebKit/537.36 (KHTML, like Gecko) draw.io/21.7.5 Chrome/114.0.5735.289 Electron/25.8.1 Safari/537.36" etag="yNkyrs8VtayM4T0GHa5I" version="21.7.5" type="device">
  <diagram name="Page-1" id="Y6yvDaJ-q81IfKdfXtnk">
    <mxGraphModel dx="1434" dy="836" grid="1" gridSize="10" guides="1" tooltips="1" connect="1" arrows="1" fold="1" page="1" pageScale="1" pageWidth="850" pageHeight="1100" math="0" shadow="0">
      <root>
        <mxCell id="0" />
        <mxCell id="1" parent="0" />
        <mxCell id="TgtHcTvRLpmeh33YHajM-1" value="&lt;font style=&quot;font-size: 28px;&quot;&gt;MainMenu&lt;/font&gt;" style="rounded=1;arcSize=10;whiteSpace=wrap;html=1;align=center;" vertex="1" parent="1">
          <mxGeometry x="190" y="305" width="140" height="40" as="geometry" />
        </mxCell>
        <mxCell id="TgtHcTvRLpmeh33YHajM-2" value="&lt;font style=&quot;font-size: 28px;&quot;&gt;GameTetris&lt;/font&gt;" style="rounded=1;arcSize=10;whiteSpace=wrap;html=1;align=center;" vertex="1" parent="1">
          <mxGeometry x="480" y="300" width="160" height="50" as="geometry" />
        </mxCell>
        <mxCell id="TgtHcTvRLpmeh33YHajM-3" value="" style="endArrow=open;endFill=1;endSize=12;html=1;rounded=0;exitX=1;exitY=0.5;exitDx=0;exitDy=0;" edge="1" parent="1" source="TgtHcTvRLpmeh33YHajM-1" target="TgtHcTvRLpmeh33YHajM-2">
          <mxGeometry width="160" relative="1" as="geometry">
            <mxPoint x="340" y="400" as="sourcePoint" />
            <mxPoint x="500" y="400" as="targetPoint" />
          </mxGeometry>
        </mxCell>
        <mxCell id="TgtHcTvRLpmeh33YHajM-4" value="&lt;font style=&quot;font-size: 14px;&quot;&gt;Начало игры&lt;/font&gt;" style="edgeLabel;html=1;align=center;verticalAlign=middle;resizable=0;points=[];" vertex="1" connectable="0" parent="TgtHcTvRLpmeh33YHajM-3">
          <mxGeometry x="0.2667" y="1" relative="1" as="geometry">
            <mxPoint x="-26" y="-11" as="offset" />
          </mxGeometry>
        </mxCell>
        <mxCell id="TgtHcTvRLpmeh33YHajM-7" value="" style="endArrow=classic;html=1;rounded=0;exitX=0.25;exitY=1;exitDx=0;exitDy=0;edgeStyle=orthogonalEdgeStyle;" edge="1" parent="1" source="TgtHcTvRLpmeh33YHajM-2" target="TgtHcTvRLpmeh33YHajM-2">
          <mxGeometry relative="1" as="geometry">
            <mxPoint x="531.27" y="360" as="sourcePoint" />
            <mxPoint x="636.27" y="360" as="targetPoint" />
            <Array as="points">
              <mxPoint x="520" y="410" />
              <mxPoint x="620" y="410" />
            </Array>
          </mxGeometry>
        </mxCell>
        <mxCell id="TgtHcTvRLpmeh33YHajM-8" value="&lt;font style=&quot;font-size: 14px;&quot;&gt;Restart&lt;/font&gt;" style="edgeLabel;resizable=0;html=1;align=center;verticalAlign=middle;" connectable="0" vertex="1" parent="TgtHcTvRLpmeh33YHajM-7">
          <mxGeometry relative="1" as="geometry">
            <mxPoint y="10" as="offset" />
          </mxGeometry>
        </mxCell>
        <mxCell id="TgtHcTvRLpmeh33YHajM-11" value="" style="endArrow=classic;html=1;rounded=0;exitX=0.5;exitY=0;exitDx=0;exitDy=0;entryX=0.456;entryY=0;entryDx=0;entryDy=0;entryPerimeter=0;edgeStyle=orthogonalEdgeStyle;" edge="1" parent="1" source="TgtHcTvRLpmeh33YHajM-2" target="TgtHcTvRLpmeh33YHajM-1">
          <mxGeometry relative="1" as="geometry">
            <mxPoint x="370" y="400" as="sourcePoint" />
            <mxPoint x="470" y="400" as="targetPoint" />
            <Array as="points">
              <mxPoint x="585" y="260" />
              <mxPoint x="254" y="260" />
            </Array>
          </mxGeometry>
        </mxCell>
        <mxCell id="TgtHcTvRLpmeh33YHajM-12" value="&lt;font style=&quot;font-size: 14px;&quot;&gt;MainMenu&lt;/font&gt;" style="edgeLabel;resizable=0;html=1;align=center;verticalAlign=middle;" connectable="0" vertex="1" parent="TgtHcTvRLpmeh33YHajM-11">
          <mxGeometry relative="1" as="geometry">
            <mxPoint x="1" y="-10" as="offset" />
          </mxGeometry>
        </mxCell>
      </root>
    </mxGraphModel>
  </diagram>
</mxfile>
